Coordinates
version=1
nRows=14
nColumns=33
inDegrees=yes

Units are S.I. units (second, meters, Newtons, ...)
Angles are in degrees.

endheader
time	ground_thorax_rot_x	ground_thorax_rot_y	ground_thorax_rot_z	ground_thorax_tx	ground_thorax_ty	ground_thorax_tz	clav_prot_r	clav_elev_r	scapula_abduction_r	scapula_elevation_r	scapula_upward_rot_r	scapula_winging_r	shoulder_elv_r	plane_of_elev_r	axial_rot_r	elbow_flexion_r	pro_sup_r	wrist_flex_r	wrist_dev_r	clav_prot_l	clav_elev_l	scapula_abduction_l	scapula_elevation_l	scapula_upward_rot_l	scapula_winging_l	shoulder_elv_l	plane_of_elev_l	axial_rot_l	elbow_flexion_l	pro_sup_l	wrist_flex_l	wrist_dev_l
      5.61000000	      0.80878229	      4.11939616	     12.98635706	     -0.11803637	      1.03163685	      0.03161145	      3.63588435	     10.58468983	     22.34578234	      4.60567567	     29.06209288	    -12.29602276	     20.13075431	    -62.27995509	     50.16408673	     63.93125421	    -23.27416300	     25.15212987	    -24.99999983	     17.74509490	     -9.70175693	    -26.51750223	    -13.68940287	    -38.17363578	      5.12385396	     65.57629413	    -21.51892790	      0.84323952	     60.42397370	      8.84203981	     22.84870131	    -10.04018079
      5.62000000	      0.63339784	      3.87592766	     13.06086356	     -0.11783713	      1.03130680	      0.03097136	      4.00419613	      9.96279541	     23.35669867	      4.03728759	     29.23001336	    -12.54409269	     19.97230454	    -60.80197557	     50.72544333	     61.77297910	    -24.00399181	     24.26832806	    -24.99999983	     18.02828896	    -10.07867080	    -26.86534951	    -13.10774938	    -37.67543033	      5.33564723	     65.53250218	    -20.74485416	      0.85049278	     58.54395132	      8.72511170	     23.11698569	     -9.53100428
      5.63000000	      0.74612963	      3.72188244	     13.02182199	     -0.11753850	      1.03024890	      0.03028634	      4.32953503	      9.92771544	     24.30907785	      3.89768823	     29.60851665	    -12.85066439	     19.76403428	    -58.98410397	     51.92001906	     59.57433251	    -26.90134278	     23.27254666	    -24.99999983	     18.33381098	    -10.27849142	    -27.24069439	    -12.60629644	    -37.00998889	      5.59838293	     64.99475773	    -19.38213247	      0.88439941	     56.27355028	      7.95128506	     24.05416588	     -8.63579465
      5.64000000	      0.54017148	      3.54038722	     13.09658167	     -0.11746427	      1.02966835	      0.02942761	      4.73119196	      9.49573246	     25.29634462	      3.49385005	     29.76064128	    -13.10918427	     18.98714625	    -56.62286211	     54.18074383	     56.05447971	    -33.96047753	     26.39476012	    -24.99999983	     18.71903925	    -10.67558318	    -27.77679443	    -12.03711359	    -36.58495177	      5.88906880	     64.94105306	    -18.51816321	      0.84928980	     54.24612206	      6.71926974	     25.01247446	     -7.56000028
      5.65000000	      0.60346327	      3.30036685	     13.19913097	     -0.11719018	      1.02878406	      0.02846132	      5.00538404	      9.98345268	     26.81706352	      3.54758858	     31.03813875	    -13.68223000	     15.96742634	    -53.63188691	     58.53201095	     49.39159513	    -42.97745097	     36.01973726	    -24.99999983	     18.87700809	    -10.99493805	    -27.91717460	    -11.48725148	    -36.02747309	      5.98730293	     64.59398907	    -17.40538237	      0.59845433	     51.86101581	      7.30021867	     24.57852879	     -7.44939453
      5.66000000	     -1.10792258	      0.82659105	     12.57757609	     -0.11629519	      1.02653083	      0.01457480	     12.78814083	     -6.75851023	     32.07820105	     -6.44502382	     17.49499329	    -11.19963095	    -22.98519188	    -64.26850997	    116.92276951	    -66.35484719	   -142.74111915	      1.54182400	      8.03798933	     16.67656164	     -6.59895743	    -23.90542785	    -13.51817676	    -31.70205662	      4.80950685	     60.68622774	    -15.07181483	      1.05084562	     49.66404244	      7.98829593	     25.01355089	     -5.46137314
      5.67000000	     -1.28861815	      0.84234908	     12.41485502	     -0.11565016	      1.02653973	      0.01417827	     12.71291008	     -7.23203892	     32.72989507	     -7.20616629	     18.66095527	    -11.20019135	    -21.44194555	    -63.45361316	    118.08400204	    -63.48440323	   -142.55285002	      0.59304539	      7.50422837	     17.22842490	     -7.29834201	    -24.80308060	    -12.67543125	    -31.32936160	      5.27192169	     60.61344461	    -14.13433178	      1.43902904	     47.22833053	      8.15102554	     25.00194473	     -5.12887662
      5.68000000	     -1.51595253	      0.86315248	     12.35682109	     -0.11517177	      1.02595428	      0.01377913	     12.88031103	     -7.63040948	     33.44578432	     -7.73756395	     19.31581188	    -11.28293779	    -19.44082012	    -62.32780391	    119.27724819	    -60.64431766	   -142.12535513	     -0.02189419	      7.69154902	     17.81644003	     -7.61626579	    -25.76782074	    -12.15990745	    -30.91698074	      5.80262448	     60.29000876	    -12.84434073	      1.78218605	     44.50625504	      8.32621708	     25.17914271	     -4.92337014
      5.69000000	     -1.70040549	      0.93638199	     12.31345560	     -0.11486752	      1.02538058	      0.01348271	     13.09114914	     -8.10240944	     34.04365957	     -8.24769939	     19.68993913	    -11.28970865	    -17.17705356	    -61.20520129	    120.53884206	    -57.86717804	   -141.38381102	     -0.48804200	      8.13971588	     18.48274731	     -8.04305201	    -26.86621773	    -11.58560546	    -30.59950387	      6.38871796	     60.03315694	    -11.57110381	      2.13655631	     41.71991294	      8.69677039	     25.31504348	     -4.84334082
      5.70000000	     -1.95142506	      0.92995199	     12.24337162	     -0.11408730	      1.02512478	      0.01295919	     13.22726093	     -8.73380324	     34.60901423	     -8.92753974	     20.20449772	    -11.18805523	    -15.27619302	    -60.16055066	    121.35080425	    -54.95017529	   -140.63406393	     -0.94858024	      8.52902743	     19.00898474	     -8.46766681	    -27.71223086	    -11.01138192	    -30.24176047	      6.83060236	     59.80372651	    -10.43466293	      2.56289755	     39.04150345	      9.15749422	     25.31337350	     -4.73611860
      5.71000000	     -2.17407702	      0.96395749	     12.16348714	     -0.11341679	      1.02470161	      0.01257454	     13.40818403	     -9.31118740	     35.15761310	     -9.52464377	     20.59153687	    -11.10072179	    -13.33749962	    -59.07015185	    122.16674809	    -52.01864377	   -139.71302708	     -1.32175085	      8.81976636	     19.56600748	     -8.83490038	    -28.61182490	    -10.46950966	    -29.84823721	      7.31880072	     59.51146189	     -9.24591843	      2.99307599	     36.28145669	      9.76043815	     25.22425794	     -4.73733217
      5.72000000	     -2.38479454	      1.05894542	     11.89811861	     -0.11254050	      1.02459900	      0.01234219	     13.69047765	    -10.00215800	     35.92596674	    -10.24238524	     21.06983821	    -11.02986197	    -11.92755962	    -58.14257825	    122.13985939	    -49.39587140	   -139.25490113	     -1.80638167	      8.95899998	     19.96613954	     -9.42858209	    -29.21884942	     -9.67678780	    -29.32803859	      7.61754856	     59.60120415	     -8.36168982	      2.89526683	     33.67523180	     10.26028701	     25.12835039	     -4.44585354
      5.73000000	     -2.58025034	      0.97084934	     11.90659356	     -0.11174002	      1.02408457	      0.01185352	     13.85980750	    -10.47615266	     36.43690635	    -10.74509530	     21.43833396	    -10.96111422	    -10.02378604	    -57.15048102	    123.22904037	    -46.33637090	   -137.92212947	     -2.02456572	      8.95126371	     20.51698193	     -9.53737437	    -30.12556127	     -9.39732576	    -29.00055975	      8.13776469	     58.94526933	     -7.03043889	      3.91434162	     30.93011028	     11.11361565	     24.67654314	     -4.71796220
      5.74000000	     -2.77201324	      1.10304261	     11.60150953	     -0.11081388	      1.02410446	      0.01169492	     14.18873134	    -11.10893579	     37.15810068	    -11.36268039	     21.75080638	    -10.89550791	     -8.63275089	    -56.26652521	    123.15758435	    -43.92540764	   -137.30530191	     -2.49012972	      8.94725169	     20.94628373	    -10.11653040	    -30.78100724	     -8.63948052	    -28.51680771	      8.44994926	     59.03857384	     -6.18695036	      3.87906056	     28.45547491	     11.77242451	     24.46099206	     -4.53566286
